<?xml version="1.0" encoding="UTF-8"?>
<!-- Generator: Adobe Illustrator 19.1.0, SVG Export Plug-In . SVG Version: 6.00 Build 0)  -->
<svg version="1.1" id="Layer_1" xmlns="http://www.w3.org/2000/svg" xmlns:xlink="http://www.w3.org/1999/xlink" x="0px" y="0px" viewBox="-255 334 100 99" style="enable-background:new -255 334 100 99;" xml:space="preserve">
<path d="M-162,424h-84v-82c0-1.1-0.9-2-2-2s-2,0.9-2,2v84c0,1.1,0.9,2,2,2h86c1.1,0,2-0.9,2-2S-160.9,424-162,424z"/>
<path d="M-163.3,360.4c0-2.7-2.2-4.9-4.9-4.9c-2.7,0-4.9,2.2-4.9,4.9c0,1.3,0.5,2.5,1.4,3.4l-9.4,17.4c0,0,0,0,0,0  c-0.8,0-1.6,0.2-2.3,0.6l-6.8-5.8c0.1-0.3,0.1-0.6,0.1-0.9c0-2.7-2.2-4.9-4.9-4.9s-4.9,2.2-4.9,4.9c0,0.7,0.2,1.4,0.5,2l-9.2,17.1  c-0.1,0-0.1,0-0.2,0c-1.2,0-2.3,0.5-3.1,1.2l-6.9-5.9c0.1-0.4,0.2-0.9,0.2-1.4c0-2.7-2.2-4.9-4.9-4.9s-4.9,2.2-4.9,4.9  c0,1.2,0.4,2.3,1.2,3.1l-8.6,17.7c-0.2,0-0.4-0.1-0.7-0.1c-2.7,0-4.9,2.2-4.9,4.9s2.2,4.9,4.9,4.9c2.7,0,4.9-2.2,4.9-4.9  c0-1-0.3-1.9-0.8-2.7l8.8-18.1c0,0,0.1,0,0.1,0c0.7,0,1.4-0.2,2.1-0.5l7.7,6.6c0,2.7,2.2,4.8,4.9,4.8c2.7,0,4.9-2.2,4.9-4.9  c0-1.2-0.4-2.2-1.1-3.1l8.8-16.2c0.4,0.1,0.9,0.2,1.3,0.2c0.9,0,1.8-0.3,2.5-0.7l6.6,5.7c-0.1,0.4-0.1,0.7-0.1,1.1  c0,2.7,2.2,4.9,4.9,4.9c2.7,0,4.9-2.2,4.9-4.9c0-1.2-0.5-2.3-1.2-3.2l9.5-17.6C-165.3,365.2-163.3,363.1-163.3,360.4z"/>
</svg>