<?xml version="1.0" standalone="no"?>
<!DOCTYPE svg PUBLIC "-//W3C//DTD SVG 20010904//EN" "http://www.w3.org/TR/2001/REC-SVG-20010904/DTD/svg10.dtd">
<svg version="1.0" xmlns="http://www.w3.org/2000/svg"
    viewBox="130 70 300 300"
    preserveAspectRatio="xMidYMid meet">

    <g transform="translate(0.000000,386.000000) scale(0.100000,-0.100000)"
        stroke="none">
        <path
            d="M2789 3131 c-363 -38 -704 -231 -921 -521 -291 -389 -346 -912 -143
-1348 127 -270 367 -513 632 -637 178 -84 313 -115 518 -122 306 -10 550 61
800 231 276 188 469 485 547 841 20 95 17 400 -6 505 -58 265 -174 479 -366
670 -107 108 -187 167 -320 238 -95 51 -260 108 -364 127 -106 18 -282 25
-377 16z m353 -135 c497 -97 876 -484 964 -986 24 -138 15 -350 -21 -485 -53
-205 -149 -377 -295 -529 -108 -114 -211 -190 -342 -254 -444 -219 -979 -140
-1342 199 -382 357 -490 918 -267 1385 63 132 116 209 215 313 198 206 452
336 728 369 99 12 266 6 360 -12z" />
        <path
            d="M2800 2466 c-160 -34 -287 -154 -320 -302 -21 -92 24 -154 112 -154
60 0 86 23 117 108 28 78 74 140 116 158 44 18 136 18 178 0 72 -31 115 -112
95 -183 -7 -29 -39 -67 -139 -163 -151 -147 -172 -183 -173 -298 -1 -71 0 -75
32 -103 24 -22 42 -29 73 -29 56 0 93 38 108 110 15 72 38 105 118 177 190
169 223 219 223 339 0 39 -7 92 -16 118 -20 59 -96 143 -161 179 -97 52 -241
70 -363 43z" />
        <path d="M2832 1403 c-86 -42 -83 -187 4 -228 124 -58 246 75 171 186 -40 59
-108 75 -175 42z" />
    </g>
</svg>