<?xml version="1.0" standalone="no"?>
<!DOCTYPE svg PUBLIC "-//W3C//DTD SVG 20010904//EN" "http://www.w3.org/TR/2001/REC-SVG-20010904/DTD/svg10.dtd">
<svg version="1.0" xmlns="http://www.w3.org/2000/svg"
    viewBox="0 0 512.000000 512.000000"
    preserveAspectRatio="xMidYMid meet">

    <g transform="translate(0.000000,512.000000) scale(0.100000,-0.100000)"
        stroke="none">
        <path
            d="M2421 5105 c-177 -39 -347 -171 -429 -335 -41 -82 -71 -191 -72 -257
l0 -33 -348 0 c-383 0 -415 -4 -523 -61 -70 -38 -157 -126 -193 -197 -49 -96
-56 -148 -56 -388 0 -252 10 -328 63 -458 l33 -83 -18 -52 c-54 -159 -78 -359
-78 -642 l0 -198 -269 -3 c-254 -3 -271 -4 -297 -24 -15 -11 -37 -33 -48 -48
-21 -27 -21 -37 -21 -599 0 -617 -1 -600 55 -750 48 -127 173 -277 306 -366
69 -46 223 -111 265 -111 11 0 23 -10 28 -22 87 -224 176 -330 346 -413 139
-67 89 -65 1398 -65 996 0 1193 3 1252 15 207 43 394 208 467 414 l23 64 54
13 c81 21 179 65 246 111 122 83 249 238 295 360 56 150 55 133 55 750 0 562
0 572 -21 599 -11 15 -33 37 -48 48 -26 20 -43 21 -297 24 l-269 3 0 198 c0
283 -24 483 -78 642 l-18 52 33 83 c53 130 63 206 63 458 0 240 -7 292 -56
388 -36 71 -123 159 -193 197 -108 57 -140 61 -521 61 l-346 0 -11 83 c-15
106 -43 180 -104 272 -64 95 -141 163 -243 215 -133 67 -281 86 -425 55z m290
-346 c90 -48 149 -132 164 -232 l7 -47 -322 0 -322 0 7 47 c19 126 114 231
240 264 62 17 161 2 226 -32z m1215 -625 c67 -50 69 -56 72 -279 2 -116 -1
-229 -7 -262 -42 -226 -247 -393 -482 -393 l-67 0 -4 70 c-6 110 -58 165 -158
165 -100 0 -152 -55 -158 -165 l-4 -70 -558 0 -558 0 -4 70 c-6 110 -58 165
-158 165 -100 0 -152 -55 -158 -165 l-4 -70 -67 0 c-226 0 -419 149 -476 365
-18 71 -22 446 -4 492 14 37 47 73 84 89 25 11 266 13 1357 11 1323 -2 1327
-2 1354 -23z m-2621 -1195 c95 -37 203 -58 301 -59 l72 0 4 -70 c6 -110 58
-165 158 -165 100 0 152 55 158 165 l4 70 558 0 558 0 4 -70 c6 -110 58 -165
158 -165 99 0 152 55 158 164 l4 68 107 6 c153 9 301 53 390 117 l30 20 13
-57 c10 -46 13 -294 13 -1233 l0 -1175 -27 -51 c-40 -76 -70 -107 -140 -145
l-63 -34 -1205 0 -1205 0 -51 27 c-76 40 -107 70 -145 140 l-34 63 -3 1100
c-3 1026 1 1257 24 1342 l6 22 37 -25 c20 -13 72 -38 116 -55z m-505 -1484 c0
-344 -2 -625 -5 -625 -3 0 -29 12 -57 26 -71 36 -159 123 -197 193 -59 111
-61 133 -61 603 l0 428 160 0 160 0 0 -625z m3840 197 c0 -470 -2 -492 -61
-603 -38 -70 -126 -157 -197 -193 -28 -14 -54 -26 -57 -26 -3 0 -5 281 -5 625
l0 625 160 0 160 0 0 -428z" />
        <path
            d="M1535 2066 c-37 -16 -70 -52 -84 -89 -7 -19 -11 -182 -11 -471 0
-364 3 -452 15 -501 45 -172 179 -305 352 -350 85 -22 1421 -22 1506 0 178 46
320 193 357 368 7 35 10 203 8 504 -3 438 -4 452 -24 479 -11 15 -33 37 -48
48 -27 21 -35 21 -1034 23 -824 2 -1012 0 -1037 -11z m1823 -655 c-3 -335 -4
-351 -24 -377 -11 -15 -33 -37 -48 -48 -27 -21 -36 -21 -726 -21 -690 0 -699
0 -726 21 -15 11 -37 33 -48 48 -20 26 -21 42 -24 377 l-3 349 801 0 801 0 -3
-349z" />
    </g>
</svg>