<svg xmlns="http://www.w3.org/2000/svg" viewBox="0 0 400 400" version="1.1">
    <path d="" stroke="none" fill-rule="evenodd" />
    <path
        d="M 75.498 39.378 C 73.665 40.718, 73.771 42.240, 79.456 96.128 C 82.707 126.942, 85.787 151.995, 86.399 152.616 C 87.310 153.539, 121.442 158.047, 127.250 158.011 C 129.519 157.997, 129.496 154.868, 127.093 136 L 125.246 121.500 101.873 79.755 C 89.018 56.796, 78.249 38.008, 77.941 38.005 C 77.634 38.002, 76.534 38.620, 75.498 39.378 M 217.421 100.928 L 165.500 138.857 162.118 147.321 C 159.141 154.776, 158.902 156.019, 160.118 157.732 C 166.373 166.543, 195.710 200.942, 196.658 200.578 C 197.322 200.323, 210.246 190.826, 225.379 179.474 C 240.511 168.121, 253.573 158.983, 254.405 159.166 C 255.236 159.350, 277.563 190.550, 304.019 228.500 C 330.475 266.450, 353.760 299.188, 355.763 301.250 C 360.635 306.266, 363.015 306.096, 369.788 300.250 C 372.814 297.637, 376.648 294.345, 378.307 292.933 C 381.108 290.550, 381.243 290.135, 380.195 287.128 C 379.574 285.347, 356.940 251.711, 329.897 212.381 C 302.854 173.051, 281.127 140.532, 281.614 140.116 C 282.101 139.701, 296.557 130.167, 313.737 118.930 C 342.103 100.378, 344.976 98.248, 344.987 95.761 C 345.004 92.106, 334.314 73.077, 331.611 71.951 C 329.077 70.895, 276.812 62.987, 272.421 62.994 C 269.953 62.999, 259.037 70.527, 217.421 100.928 M 14 151.808 C 15.879 154.575, 73.161 203.123, 74.122 202.764 C 75.644 202.194, 90 182.599, 89.995 181.098 C 89.992 179.922, 80.281 175.742, 53.245 165.279 C 33.035 157.457, 15.600 150.730, 14.500 150.329 C 12.627 149.646, 12.596 149.740, 14 151.808 M 100.500 225.598 C 86.200 244.576, 74.126 261.092, 73.669 262.301 C 73.043 263.959, 76.509 275.317, 87.760 308.464 L 102.681 352.428 145.388 364.810 C 173.310 372.906, 188.933 376.983, 190.512 376.586 C 192.273 376.144, 199.863 366.276, 218.464 340.248 C 242.385 306.774, 244 304.242, 244 300.197 C 244 297.429, 239.672 282.354, 231.940 258.190 L 219.879 220.500 215.132 216 L 210.384 211.500 171.942 201.240 C 150.799 195.597, 131.925 191.006, 130 191.037 C 126.586 191.092, 125.858 191.945, 100.500 225.598 M 152.997 235.583 C 152.995 236.088, 152.515 241.601, 151.931 247.836 C 150.811 259.797, 143.716 286.049, 138.239 298.500 C 134.829 306.252, 127.389 318.354, 120.029 328.122 C 116.822 332.379, 114.940 335.583, 115.849 335.243 C 118.790 334.141, 176.167 308.166, 176.587 307.746 C 178.150 306.183, 175.980 298.540, 165.583 269 C 154.310 236.968, 153.004 233.501, 152.997 235.583"
        stroke="none" fill-rule="evenodd" />
</svg>