<?xml version="1.0" standalone="no"?>
<!DOCTYPE svg PUBLIC "-//W3C//DTD SVG 20010904//EN"
 "http://www.w3.org/TR/2001/REC-SVG-20010904/DTD/svg10.dtd">
<svg version="1.0" xmlns="http://www.w3.org/2000/svg"
 width="324.000000pt" height="384.000000pt" viewBox="0 0 324.000000 384.000000"
 preserveAspectRatio="xMidYMid meet">

<g transform="translate(0.000000,384.000000) scale(0.100000,-0.100000)"
stroke="none">
<path d="M1570 3823 c-266 -25 -608 -174 -825 -358 -265 -225 -409 -472 -476
-820 -6 -27 -14 -264 -19 -525 -9 -490 -16 -589 -52 -724 -23 -85 -87 -192
-152 -255 -20 -19 -36 -43 -36 -53 0 -16 41 -149 59 -193 5 -11 21 -49 36 -85
104 -248 273 -479 445 -609 154 -116 363 -190 513 -182 23 1 22 24 -3 46 -30
27 -86 123 -119 202 -53 129 -95 352 -90 484 1 54 25 268 35 324 14 76 49 210
81 308 19 59 33 114 30 121 -3 7 -29 21 -59 30 -161 53 -330 182 -385 295 -36
73 -51 167 -40 251 11 90 60 229 86 244 11 7 146 -9 211 -25 221 -54 415 -192
553 -392 l42 -62 2 -500 2 -500 98 -92 c54 -51 105 -93 113 -93 8 0 61 44 118
98 l102 97 0 501 0 501 41 63 c101 157 264 286 441 349 118 42 304 70 325 49
6 -7 26 -55 43 -106 38 -119 42 -249 9 -336 -29 -78 -98 -168 -171 -222 -62
-46 -196 -115 -251 -128 -15 -4 -30 -13 -33 -21 -3 -7 10 -60 29 -117 39 -113
89 -321 106 -436 23 -150 10 -396 -28 -542 -29 -114 -100 -261 -156 -328 -39
-45 -43 -62 -17 -63 154 -9 373 72 527 194 189 150 360 402 470 697 26 68 42
121 50 158 6 29 1 38 -57 102 -154 168 -178 293 -178 935 0 446 -13 574 -75
760 -64 191 -163 346 -324 506 -160 160 -338 276 -546 357 -172 67 -366 106
-475 95z"/>
</g>
</svg>
